<svg width="160" height="152" viewBox="0 0 160 152" fill="none" xmlns="http://www.w3.org/2000/svg">
<path d="M33.8363 32.3418C32.0736 36.3172 31.7543 41.3522 31.3419 45.6516C30.772 51.5942 30.3863 57.5738 30.4545 63.5473C30.5224 69.493 29.512 75.8443 28.9403 81.8058C28.5098 86.2943 27.3249 90.7378 26.665 95.2128C26.1271 98.8599 25.1593 102.384 24.3008 105.93C23.6786 108.5 26.7183 101.199 27.5168 98.6775C29.0171 93.9401 31.1448 89.2474 33.1624 84.6973C34.4928 81.697 35.5768 77.8567 37.4387 75.119C39.4672 72.1361 41.7883 77.8285 41.9071 81.527C42.0922 85.5228 42.3435 89.8131 42.6422 93.7934C42.528 95.613 43.9544 103.274 46.8824 101.964C48.0146 101.458 48.7625 99.9391 49.6101 99.0964C50.9054 97.8084 52.5545 96.4552 53.6397 95.0003C55.5911 92.384 57.0747 89.8806 58.3903 86.9137C60.2426 82.7362 62.5071 79.2025 61.3151 74.4064" stroke="#C4B392" stroke-width="1.3" stroke-linecap="round"/>
<path d="M48.075 57.9776C46.8611 60.7152 46.6008 63.1931 46.6675 66.5373C46.4972 67.7086 46.7628 69.1113 46.7434 70.3144C46.7215 71.6759 46.6814 73.0874 46.8261 74.44C46.9534 75.6301 47.0027 76.8271 47.058 78.0213C47.0684 78.2463 47.1506 79.6977 47.7561 79.2523C48.5565 78.6635 49.2062 76.8869 49.6135 75.9985C50.4354 74.2059 51.2129 72.3916 52.0122 70.5888C53.0942 68.1487 53.7395 65.3815 54.2805 62.7717C54.4572 61.9194 55.1007 60.5092 54.8851 59.6419C54.6513 58.7016 53.8827 60.8796 53.8599 61.0187C53.5059 63.1826 54.1907 65.6662 54.2058 67.8757C54.214 69.0759 54.5889 70.2426 54.644 71.4333C54.6846 72.3093 54.8087 73.1608 54.8868 74.0289C54.9311 74.5216 54.8842 75.1809 55.0657 75.6516C55.2888 76.2303 56.0323 75.0822 56.1192 74.8863C56.721 73.5291 57.3228 72.1719 57.9246 70.8147C58.616 69.2553 59.3075 67.696 59.9989 66.1366C60.635 64.702 60.9091 63.1488 61.5389 61.7284C62.1284 60.3989 62.4681 58.9949 63.138 57.6805C63.9473 56.0925 65.1398 54.7235 66.163 53.2742C67.0826 51.9716 65.2646 54.3862 65.0128 54.8289C64.2605 56.152 63.8742 57.2164 63.7472 58.7223C63.6678 59.6645 63.8394 61.8679 64.4223 62.711C64.4223 62.711 65.2276 63.7772 65.8089 64.2553C67.3662 65.5361 68.8836 67.777 68.0316 69.6984C67.1001 71.7993 64.1055 75.6286 61.3146 74.3911" stroke="#C4B392" stroke-width="1.3" stroke-linecap="round"/>
<path d="M65.9094 72.5936C65.9094 72.5936 68.5955 70.3177 68.6459 68.3128C68.7057 65.9339 70.6182 65.1835 71.8508 63.7214C73.3708 61.9185 74.8089 60.1636 75.6561 57.945C76.0063 57.0279 75.575 56.2575 75.0228 57.5029C74.2953 59.1436 74.352 60.5345 74.1417 62.2954C73.8019 65.1411 73.7466 68.1569 73.7622 70.9961C73.7649 71.4804 73.3857 72.1625 73.723 72.5913C74.0949 73.064 75.2432 71.6232 75.4752 71.3411C77.8294 68.4788 80.3296 65.5501 82.1665 62.3291C82.7956 61.2259 83.8464 59.8556 83.8952 58.5344C83.9338 57.4872 83.6719 55.8639 82.8701 57.5731C81.6807 60.1086 81.7296 63.0134 81.4767 65.7551C81.3157 67.4995 80.8194 69.4268 80.9831 71.1802C81.0355 71.7412 81.0335 73.5717 81.8985 72.6227C82.944 71.4756 83.1594 69.5748 84.0404 68.2856C85.426 66.2582 86.9765 64.2098 87.9757 61.9563C88.9318 59.8002 90.4137 57.9424 91.4931 55.868C91.915 55.0573 92.8703 54.0146 92.8613 53.0422C92.8575 52.6305 92.714 52.673 92.5587 53.0232C92.1167 54.0201 91.63 54.9933 91.4559 56.0818C90.9167 59.4533 91.3176 63.0896 91.7856 66.4561C91.995 67.9625 91.8969 69.8488 92.4473 71.2762C93.1398 73.0721 103.236 64.4774 103.739 63.9933C105.221 62.5679 106.578 61.0458 107.939 59.509C108.971 58.3443 110.046 57.3166 110.756 55.9091C111.258 54.9141 111.798 53.1278 109.898 53.4551C108.217 53.7448 106.868 55.3537 106.229 56.7928C105.006 59.5524 104.013 62.2453 103.142 65.1335C102.934 65.8228 102.07 68.0381 102.463 68.7947C102.787 69.4202 104.372 68.4577 104.723 68.3458C110.625 66.4659 116.679 65.2243 122.735 63.9619C127.923 62.8805 131.019 62.3221 136.161 60.9077C138.385 60.2958 140.597 59.6361 142.78 58.8899C153.442 55.2447 144.487 57.9363 154.726 54.028" stroke="#C4B392" stroke-width="1.3" stroke-linecap="round"/>
<path d="M74.6698 51.2876C75.7326 48.8908 77.24 46.7442 78.686 44.568" stroke="#C4B392" stroke-width="1.3" stroke-linecap="round"/>
</svg>
